# xmcd CD database file
#
# Track frame offsets:
#	150
#	22948
#	52187
#	77796
#	104125
#	129535
#	146884
#	165411
#	190738
#	209676
#
# Disc length: 3054 seconds
#
# Revision: 0
# Processed by: cddbd v1.5.1PL0 Copyright (c) Steve Scherf et al.
# Submitted via: CDex 1.51
#
DISCID=930bec0a
DTITLE=Liz Briones - Liz Briones
DYEAR=2005
DGENRE=Jazz
TTITLE0=Sometimes I'm Happy
TTITLE1=Besame Mucho
TTITLE2=Is You or Is You Ain't My Baby/Hit the Road Jack 
TTITLE3=Embraceable You
TTITLE4=Chain of Fools
TTITLE5=Sabor A Mi
TTITLE6=West Coast Blues
TTITLE7=You Don't Know What Love Is
TTITLE8=Round Midnight
TTITLE9=Beautiful Friendship
EXTD=YEAR: 2005
EXTT0=
EXTT1=
EXTT2=
EXTT3=
EXTT4=
EXTT5=
EXTT6=
EXTT7=
EXTT8=
EXTT9=
PLAYORDER=
